<mxfile host="app.diagrams.net" modified="2023-07-21T07:38:23.375Z" agent="Mozilla/5.0 (Windows NT 10.0; Win64; x64) AppleWebKit/537.36 (KHTML, like Gecko) Chrome/114.0.0.0 Safari/537.36 Edg/114.0.1823.82" etag="t5sINkXTaBfasr5FcQad" version="21.6.5" type="github">
  <diagram name="一期平台原型" id="7vqjUSaPkWFY0bzkxEbH">
    <mxGraphModel dx="3294" dy="1790" grid="1" gridSize="10" guides="1" tooltips="1" connect="1" arrows="1" fold="1" page="1" pageScale="1" pageWidth="827" pageHeight="1169" math="0" shadow="0">
      <root>
        <mxCell id="0" />
        <mxCell id="1" parent="0" />
        <mxCell id="zD3SIofIrI8dMV4qVYlW-1" value="登录页" style="swimlane;fontStyle=0;childLayout=stackLayout;horizontal=1;startSize=26;horizontalStack=0;resizeParent=1;resizeParentMax=0;resizeLast=0;collapsible=1;marginBottom=0;align=center;fontSize=18;fillColor=#647687;fontColor=#ffffff;strokeColor=#314354;" vertex="1" parent="1">
          <mxGeometry x="1060" y="557.5" width="160" height="146" as="geometry" />
        </mxCell>
        <mxCell id="zD3SIofIrI8dMV4qVYlW-2" value="用户名" style="text;strokeColor=#006EAF;fillColor=#1ba1e2;spacingLeft=4;spacingRight=4;overflow=hidden;rotatable=0;points=[[0,0.5],[1,0.5]];portConstraint=eastwest;fontSize=18;whiteSpace=wrap;html=1;fontColor=#ffffff;" vertex="1" parent="zD3SIofIrI8dMV4qVYlW-1">
          <mxGeometry y="26" width="160" height="30" as="geometry" />
        </mxCell>
        <mxCell id="zD3SIofIrI8dMV4qVYlW-3" value="密码" style="text;strokeColor=#006EAF;fillColor=#1ba1e2;spacingLeft=4;spacingRight=4;overflow=hidden;rotatable=0;points=[[0,0.5],[1,0.5]];portConstraint=eastwest;fontSize=18;whiteSpace=wrap;html=1;fontColor=#ffffff;" vertex="1" parent="zD3SIofIrI8dMV4qVYlW-1">
          <mxGeometry y="56" width="160" height="30" as="geometry" />
        </mxCell>
        <mxCell id="zD3SIofIrI8dMV4qVYlW-4" value="记住密码" style="text;strokeColor=#2D7600;fillColor=#60a917;spacingLeft=4;spacingRight=4;overflow=hidden;rotatable=0;points=[[0,0.5],[1,0.5]];portConstraint=eastwest;fontSize=18;whiteSpace=wrap;html=1;fontColor=#ffffff;" vertex="1" parent="zD3SIofIrI8dMV4qVYlW-1">
          <mxGeometry y="86" width="160" height="30" as="geometry" />
        </mxCell>
        <mxCell id="zD3SIofIrI8dMV4qVYlW-5" value="登录" style="text;strokeColor=#666666;fillColor=#f5f5f5;spacingLeft=4;spacingRight=4;overflow=hidden;rotatable=0;points=[[0,0.5],[1,0.5]];portConstraint=eastwest;fontSize=18;whiteSpace=wrap;html=1;gradientColor=#b3b3b3;fontColor=#000000;" vertex="1" parent="zD3SIofIrI8dMV4qVYlW-1">
          <mxGeometry y="116" width="160" height="30" as="geometry" />
        </mxCell>
        <mxCell id="zD3SIofIrI8dMV4qVYlW-6" style="edgeStyle=orthogonalEdgeStyle;rounded=0;orthogonalLoop=1;jettySize=auto;html=1;exitX=0.5;exitY=1;exitDx=0;exitDy=0;exitPerimeter=0;entryX=0.5;entryY=0;entryDx=0;entryDy=0;fontSize=18;" edge="1" parent="1" source="zD3SIofIrI8dMV4qVYlW-10" target="zD3SIofIrI8dMV4qVYlW-1">
          <mxGeometry relative="1" as="geometry" />
        </mxCell>
        <mxCell id="zD3SIofIrI8dMV4qVYlW-7" value="否" style="edgeLabel;html=1;align=center;verticalAlign=middle;resizable=0;points=[];fontSize=18;" vertex="1" connectable="0" parent="zD3SIofIrI8dMV4qVYlW-6">
          <mxGeometry x="0.2325" y="2" relative="1" as="geometry">
            <mxPoint x="-2" as="offset" />
          </mxGeometry>
        </mxCell>
        <mxCell id="zD3SIofIrI8dMV4qVYlW-8" style="edgeStyle=orthogonalEdgeStyle;rounded=0;orthogonalLoop=1;jettySize=auto;html=1;exitX=1;exitY=0.5;exitDx=0;exitDy=0;exitPerimeter=0;entryX=0.5;entryY=0;entryDx=0;entryDy=0;fontSize=18;" edge="1" parent="1" source="zD3SIofIrI8dMV4qVYlW-10" target="zD3SIofIrI8dMV4qVYlW-12">
          <mxGeometry relative="1" as="geometry">
            <mxPoint x="1340" y="462.5" as="targetPoint" />
          </mxGeometry>
        </mxCell>
        <mxCell id="zD3SIofIrI8dMV4qVYlW-9" value="是" style="edgeLabel;html=1;align=center;verticalAlign=middle;resizable=0;points=[];fontSize=18;" vertex="1" connectable="0" parent="zD3SIofIrI8dMV4qVYlW-8">
          <mxGeometry x="-0.1582" y="1" relative="1" as="geometry">
            <mxPoint x="-42" y="1" as="offset" />
          </mxGeometry>
        </mxCell>
        <mxCell id="zD3SIofIrI8dMV4qVYlW-10" value="成功登录" style="points=[[0.25,0.25,0],[0.5,0,0],[0.75,0.25,0],[1,0.5,0],[0.75,0.75,0],[0.5,1,0],[0.25,0.75,0],[0,0.5,0]];shape=mxgraph.bpmn.gateway2;html=1;verticalLabelPosition=bottom;labelBackgroundColor=none;verticalAlign=top;align=center;perimeter=rhombusPerimeter;outlineConnect=0;outline=none;symbol=none;fontSize=18;" vertex="1" parent="1">
          <mxGeometry x="1097.5" y="437.5" width="85" height="50" as="geometry" />
        </mxCell>
        <mxCell id="zD3SIofIrI8dMV4qVYlW-11" style="edgeStyle=orthogonalEdgeStyle;rounded=0;orthogonalLoop=1;jettySize=auto;html=1;exitX=0;exitY=0.5;exitDx=0;exitDy=0;entryX=0;entryY=0.5;entryDx=0;entryDy=0;entryPerimeter=0;fontSize=18;" edge="1" parent="1" source="zD3SIofIrI8dMV4qVYlW-5" target="zD3SIofIrI8dMV4qVYlW-10">
          <mxGeometry relative="1" as="geometry">
            <Array as="points">
              <mxPoint x="1000" y="688.5" />
              <mxPoint x="1000" y="462.5" />
            </Array>
          </mxGeometry>
        </mxCell>
        <mxCell id="zD3SIofIrI8dMV4qVYlW-12" value="云平台" style="shape=table;startSize=30;container=1;collapsible=1;childLayout=tableLayout;fixedRows=1;rowLines=0;fontStyle=0;align=center;resizeLast=1;html=1;whiteSpace=wrap;fillColor=#647687;fontColor=#ffffff;strokeColor=#314354;fontSize=18;" vertex="1" parent="1">
          <mxGeometry x="1300" y="557.5" width="270" height="330" as="geometry">
            <mxRectangle x="370" y="370" width="90" height="40" as="alternateBounds" />
          </mxGeometry>
        </mxCell>
        <mxCell id="zD3SIofIrI8dMV4qVYlW-13" value="" style="shape=tableRow;horizontal=0;startSize=0;swimlaneHead=0;swimlaneBody=0;fillColor=none;collapsible=0;dropTarget=0;points=[[0,0.5],[1,0.5]];portConstraint=eastwest;top=0;left=0;right=0;bottom=0;html=1;fontSize=18;" vertex="1" parent="zD3SIofIrI8dMV4qVYlW-12">
          <mxGeometry y="30" width="270" height="30" as="geometry" />
        </mxCell>
        <mxCell id="zD3SIofIrI8dMV4qVYlW-14" value="模块" style="shape=partialRectangle;connectable=0;fillColor=none;top=0;left=0;bottom=0;right=0;fontStyle=0;overflow=hidden;html=1;whiteSpace=wrap;fontSize=18;" vertex="1" parent="zD3SIofIrI8dMV4qVYlW-13">
          <mxGeometry width="60" height="30" as="geometry">
            <mxRectangle width="60" height="30" as="alternateBounds" />
          </mxGeometry>
        </mxCell>
        <mxCell id="zD3SIofIrI8dMV4qVYlW-15" value="首页（默认）" style="shape=partialRectangle;connectable=0;fillColor=#60a917;top=0;left=0;bottom=0;right=0;align=left;spacingLeft=6;fontStyle=0;overflow=hidden;html=1;whiteSpace=wrap;fontColor=#ffffff;strokeColor=#2D7600;fontSize=18;" vertex="1" parent="zD3SIofIrI8dMV4qVYlW-13">
          <mxGeometry x="60" width="210" height="30" as="geometry">
            <mxRectangle width="210" height="30" as="alternateBounds" />
          </mxGeometry>
        </mxCell>
        <mxCell id="zD3SIofIrI8dMV4qVYlW-16" value="" style="shape=tableRow;horizontal=0;startSize=0;swimlaneHead=0;swimlaneBody=0;fillColor=none;collapsible=0;dropTarget=0;points=[[0,0.5],[1,0.5]];portConstraint=eastwest;top=0;left=0;right=0;bottom=0;html=1;fontSize=18;" vertex="1" parent="zD3SIofIrI8dMV4qVYlW-12">
          <mxGeometry y="60" width="270" height="30" as="geometry" />
        </mxCell>
        <mxCell id="zD3SIofIrI8dMV4qVYlW-17" value="" style="shape=partialRectangle;connectable=0;fillColor=none;top=0;left=0;bottom=0;right=0;fontStyle=0;overflow=hidden;html=1;whiteSpace=wrap;fontSize=18;" vertex="1" parent="zD3SIofIrI8dMV4qVYlW-16">
          <mxGeometry width="60" height="30" as="geometry">
            <mxRectangle width="60" height="30" as="alternateBounds" />
          </mxGeometry>
        </mxCell>
        <mxCell id="zD3SIofIrI8dMV4qVYlW-18" value="数据库总览" style="shape=partialRectangle;connectable=0;fillColor=#60a917;top=0;left=0;bottom=0;right=0;align=left;spacingLeft=6;fontStyle=0;overflow=hidden;html=1;whiteSpace=wrap;fontColor=#ffffff;strokeColor=#2D7600;fontSize=18;" vertex="1" parent="zD3SIofIrI8dMV4qVYlW-16">
          <mxGeometry x="60" width="210" height="30" as="geometry">
            <mxRectangle width="210" height="30" as="alternateBounds" />
          </mxGeometry>
        </mxCell>
        <mxCell id="zD3SIofIrI8dMV4qVYlW-19" value="" style="shape=tableRow;horizontal=0;startSize=0;swimlaneHead=0;swimlaneBody=0;fillColor=none;collapsible=0;dropTarget=0;points=[[0,0.5],[1,0.5]];portConstraint=eastwest;top=0;left=0;right=0;bottom=0;html=1;fontSize=18;" vertex="1" parent="zD3SIofIrI8dMV4qVYlW-12">
          <mxGeometry y="90" width="270" height="30" as="geometry" />
        </mxCell>
        <mxCell id="zD3SIofIrI8dMV4qVYlW-20" value="" style="shape=partialRectangle;connectable=0;fillColor=none;top=0;left=0;bottom=0;right=0;fontStyle=0;overflow=hidden;html=1;whiteSpace=wrap;fontSize=18;" vertex="1" parent="zD3SIofIrI8dMV4qVYlW-19">
          <mxGeometry width="60" height="30" as="geometry">
            <mxRectangle width="60" height="30" as="alternateBounds" />
          </mxGeometry>
        </mxCell>
        <mxCell id="zD3SIofIrI8dMV4qVYlW-21" value="查询与下载" style="shape=partialRectangle;connectable=0;fillColor=#e3c800;top=0;left=0;bottom=0;right=0;align=left;spacingLeft=6;fontStyle=0;overflow=hidden;html=1;whiteSpace=wrap;fontColor=#000000;strokeColor=#B09500;fontSize=18;" vertex="1" parent="zD3SIofIrI8dMV4qVYlW-19">
          <mxGeometry x="60" width="210" height="30" as="geometry">
            <mxRectangle width="210" height="30" as="alternateBounds" />
          </mxGeometry>
        </mxCell>
        <mxCell id="zD3SIofIrI8dMV4qVYlW-22" value="" style="shape=tableRow;horizontal=0;startSize=0;swimlaneHead=0;swimlaneBody=0;fillColor=none;collapsible=0;dropTarget=0;points=[[0,0.5],[1,0.5]];portConstraint=eastwest;top=0;left=0;right=0;bottom=0;html=1;fontSize=18;" vertex="1" parent="zD3SIofIrI8dMV4qVYlW-12">
          <mxGeometry y="120" width="270" height="30" as="geometry" />
        </mxCell>
        <mxCell id="zD3SIofIrI8dMV4qVYlW-23" value="" style="shape=partialRectangle;connectable=0;fillColor=none;top=0;left=0;bottom=0;right=0;fontStyle=0;overflow=hidden;html=1;whiteSpace=wrap;fontSize=18;" vertex="1" parent="zD3SIofIrI8dMV4qVYlW-22">
          <mxGeometry width="60" height="30" as="geometry">
            <mxRectangle width="60" height="30" as="alternateBounds" />
          </mxGeometry>
        </mxCell>
        <mxCell id="zD3SIofIrI8dMV4qVYlW-24" value="数据可视化" style="shape=partialRectangle;connectable=0;fillColor=#60a917;top=0;left=0;bottom=0;right=0;align=left;spacingLeft=6;fontStyle=0;overflow=hidden;html=1;whiteSpace=wrap;fontColor=#ffffff;strokeColor=#2D7600;fontSize=18;" vertex="1" parent="zD3SIofIrI8dMV4qVYlW-22">
          <mxGeometry x="60" width="210" height="30" as="geometry">
            <mxRectangle width="210" height="30" as="alternateBounds" />
          </mxGeometry>
        </mxCell>
        <mxCell id="zD3SIofIrI8dMV4qVYlW-25" value="" style="shape=tableRow;horizontal=0;startSize=0;swimlaneHead=0;swimlaneBody=0;fillColor=none;collapsible=0;dropTarget=0;points=[[0,0.5],[1,0.5]];portConstraint=eastwest;top=0;left=0;right=0;bottom=1;html=1;fontStyle=0;fontSize=18;" vertex="1" parent="zD3SIofIrI8dMV4qVYlW-12">
          <mxGeometry y="150" width="270" height="30" as="geometry" />
        </mxCell>
        <mxCell id="zD3SIofIrI8dMV4qVYlW-26" value="" style="shape=partialRectangle;connectable=0;fillColor=none;top=0;left=0;bottom=0;right=0;fontStyle=1;overflow=hidden;html=1;whiteSpace=wrap;fontSize=18;" vertex="1" parent="zD3SIofIrI8dMV4qVYlW-25">
          <mxGeometry width="60" height="30" as="geometry">
            <mxRectangle width="60" height="30" as="alternateBounds" />
          </mxGeometry>
        </mxCell>
        <mxCell id="zD3SIofIrI8dMV4qVYlW-27" value="用户管理" style="shape=partialRectangle;connectable=0;fillColor=#e3c800;top=0;left=0;bottom=0;right=0;align=left;spacingLeft=6;fontStyle=0;overflow=hidden;html=1;whiteSpace=wrap;fontColor=#000000;strokeColor=#B09500;fontSize=18;" vertex="1" parent="zD3SIofIrI8dMV4qVYlW-25">
          <mxGeometry x="60" width="210" height="30" as="geometry">
            <mxRectangle width="210" height="30" as="alternateBounds" />
          </mxGeometry>
        </mxCell>
        <mxCell id="zD3SIofIrI8dMV4qVYlW-28" value="" style="shape=tableRow;horizontal=0;startSize=0;swimlaneHead=0;swimlaneBody=0;fillColor=none;collapsible=0;dropTarget=0;points=[[0,0.5],[1,0.5]];portConstraint=eastwest;top=0;left=0;right=0;bottom=0;html=1;fontSize=18;" vertex="1" parent="zD3SIofIrI8dMV4qVYlW-12">
          <mxGeometry y="180" width="270" height="30" as="geometry" />
        </mxCell>
        <mxCell id="zD3SIofIrI8dMV4qVYlW-29" value="功能点" style="shape=partialRectangle;connectable=0;fillColor=none;top=0;left=0;bottom=0;right=0;editable=1;overflow=hidden;html=1;whiteSpace=wrap;fontSize=18;" vertex="1" parent="zD3SIofIrI8dMV4qVYlW-28">
          <mxGeometry width="60" height="30" as="geometry">
            <mxRectangle width="60" height="30" as="alternateBounds" />
          </mxGeometry>
        </mxCell>
        <mxCell id="zD3SIofIrI8dMV4qVYlW-30" value="个人中心" style="shape=partialRectangle;connectable=0;fillColor=#60a917;top=0;left=0;bottom=0;right=0;align=left;spacingLeft=6;overflow=hidden;html=1;whiteSpace=wrap;fontColor=#ffffff;strokeColor=#2D7600;fontSize=18;" vertex="1" parent="zD3SIofIrI8dMV4qVYlW-28">
          <mxGeometry x="60" width="210" height="30" as="geometry">
            <mxRectangle width="210" height="30" as="alternateBounds" />
          </mxGeometry>
        </mxCell>
        <mxCell id="zD3SIofIrI8dMV4qVYlW-31" value="" style="shape=tableRow;horizontal=0;startSize=0;swimlaneHead=0;swimlaneBody=0;fillColor=none;collapsible=0;dropTarget=0;points=[[0,0.5],[1,0.5]];portConstraint=eastwest;top=0;left=0;right=0;bottom=0;html=1;fontSize=18;" vertex="1" parent="zD3SIofIrI8dMV4qVYlW-12">
          <mxGeometry y="210" width="270" height="30" as="geometry" />
        </mxCell>
        <mxCell id="zD3SIofIrI8dMV4qVYlW-32" value="" style="shape=partialRectangle;connectable=0;fillColor=none;top=0;left=0;bottom=0;right=0;editable=1;overflow=hidden;html=1;whiteSpace=wrap;fontSize=18;" vertex="1" parent="zD3SIofIrI8dMV4qVYlW-31">
          <mxGeometry width="60" height="30" as="geometry">
            <mxRectangle width="60" height="30" as="alternateBounds" />
          </mxGeometry>
        </mxCell>
        <mxCell id="zD3SIofIrI8dMV4qVYlW-33" value="全屏/还原" style="shape=partialRectangle;connectable=0;fillColor=#60a917;top=0;left=0;bottom=0;right=0;align=left;spacingLeft=6;overflow=hidden;html=1;whiteSpace=wrap;fontColor=#ffffff;strokeColor=#2D7600;fontSize=18;" vertex="1" parent="zD3SIofIrI8dMV4qVYlW-31">
          <mxGeometry x="60" width="210" height="30" as="geometry">
            <mxRectangle width="210" height="30" as="alternateBounds" />
          </mxGeometry>
        </mxCell>
        <mxCell id="zD3SIofIrI8dMV4qVYlW-34" value="" style="shape=tableRow;horizontal=0;startSize=0;swimlaneHead=0;swimlaneBody=0;fillColor=none;collapsible=0;dropTarget=0;points=[[0,0.5],[1,0.5]];portConstraint=eastwest;top=0;left=0;right=0;bottom=0;html=1;fontSize=18;" vertex="1" parent="zD3SIofIrI8dMV4qVYlW-12">
          <mxGeometry y="240" width="270" height="30" as="geometry" />
        </mxCell>
        <mxCell id="zD3SIofIrI8dMV4qVYlW-35" value="" style="shape=partialRectangle;connectable=0;fillColor=none;top=0;left=0;bottom=0;right=0;editable=1;overflow=hidden;html=1;whiteSpace=wrap;fontSize=18;" vertex="1" parent="zD3SIofIrI8dMV4qVYlW-34">
          <mxGeometry width="60" height="30" as="geometry">
            <mxRectangle width="60" height="30" as="alternateBounds" />
          </mxGeometry>
        </mxCell>
        <mxCell id="zD3SIofIrI8dMV4qVYlW-36" value="切换黑暗模式/亮色模式" style="shape=partialRectangle;connectable=0;fillColor=#60a917;top=0;left=0;bottom=0;right=0;align=left;spacingLeft=6;overflow=hidden;html=1;whiteSpace=wrap;fontColor=#ffffff;strokeColor=#2D7600;fontSize=18;" vertex="1" parent="zD3SIofIrI8dMV4qVYlW-34">
          <mxGeometry x="60" width="210" height="30" as="geometry">
            <mxRectangle width="210" height="30" as="alternateBounds" />
          </mxGeometry>
        </mxCell>
        <mxCell id="zD3SIofIrI8dMV4qVYlW-37" value="" style="shape=tableRow;horizontal=0;startSize=0;swimlaneHead=0;swimlaneBody=0;fillColor=none;collapsible=0;dropTarget=0;points=[[0,0.5],[1,0.5]];portConstraint=eastwest;top=0;left=0;right=0;bottom=0;html=1;fontSize=18;" vertex="1" parent="zD3SIofIrI8dMV4qVYlW-12">
          <mxGeometry y="270" width="270" height="30" as="geometry" />
        </mxCell>
        <mxCell id="zD3SIofIrI8dMV4qVYlW-38" value="" style="shape=partialRectangle;connectable=0;fillColor=none;top=0;left=0;bottom=0;right=0;editable=1;overflow=hidden;html=1;whiteSpace=wrap;fontSize=18;" vertex="1" parent="zD3SIofIrI8dMV4qVYlW-37">
          <mxGeometry width="60" height="30" as="geometry">
            <mxRectangle width="60" height="30" as="alternateBounds" />
          </mxGeometry>
        </mxCell>
        <mxCell id="zD3SIofIrI8dMV4qVYlW-39" value="搜索" style="shape=partialRectangle;connectable=0;fillColor=#60a917;top=0;left=0;bottom=0;right=0;align=left;spacingLeft=6;overflow=hidden;html=1;whiteSpace=wrap;fontColor=#ffffff;strokeColor=#2D7600;fontSize=18;" vertex="1" parent="zD3SIofIrI8dMV4qVYlW-37">
          <mxGeometry x="60" width="210" height="30" as="geometry">
            <mxRectangle width="210" height="30" as="alternateBounds" />
          </mxGeometry>
        </mxCell>
        <mxCell id="zD3SIofIrI8dMV4qVYlW-40" value="" style="shape=tableRow;horizontal=0;startSize=0;swimlaneHead=0;swimlaneBody=0;fillColor=none;collapsible=0;dropTarget=0;points=[[0,0.5],[1,0.5]];portConstraint=eastwest;top=0;left=0;right=0;bottom=0;html=1;fontSize=18;" vertex="1" parent="zD3SIofIrI8dMV4qVYlW-12">
          <mxGeometry y="300" width="270" height="30" as="geometry" />
        </mxCell>
        <mxCell id="zD3SIofIrI8dMV4qVYlW-41" value="" style="shape=partialRectangle;connectable=0;fillColor=none;top=0;left=0;bottom=0;right=0;editable=1;overflow=hidden;html=1;whiteSpace=wrap;fontSize=18;" vertex="1" parent="zD3SIofIrI8dMV4qVYlW-40">
          <mxGeometry width="60" height="30" as="geometry">
            <mxRectangle width="60" height="30" as="alternateBounds" />
          </mxGeometry>
        </mxCell>
        <mxCell id="zD3SIofIrI8dMV4qVYlW-42" value="退出登录" style="shape=partialRectangle;connectable=0;fillColor=#60a917;top=0;left=0;bottom=0;right=0;align=left;spacingLeft=6;overflow=hidden;html=1;whiteSpace=wrap;fontColor=#ffffff;strokeColor=#2D7600;fontSize=18;" vertex="1" parent="zD3SIofIrI8dMV4qVYlW-40">
          <mxGeometry x="60" width="210" height="30" as="geometry">
            <mxRectangle width="210" height="30" as="alternateBounds" />
          </mxGeometry>
        </mxCell>
        <mxCell id="zD3SIofIrI8dMV4qVYlW-43" value="首页" style="swimlane;fontStyle=0;childLayout=stackLayout;horizontal=1;startSize=26;horizontalStack=0;resizeParent=1;resizeParentMax=0;resizeLast=0;collapsible=1;marginBottom=0;align=center;fontSize=18;fillColor=#647687;fontColor=#ffffff;strokeColor=#314354;" vertex="1" parent="1">
          <mxGeometry x="1760" y="457.5" width="160" height="116" as="geometry">
            <mxRectangle x="913" y="1110" width="80" height="40" as="alternateBounds" />
          </mxGeometry>
        </mxCell>
        <mxCell id="zD3SIofIrI8dMV4qVYlW-44" value="平台介绍（默认）" style="text;strokeColor=#2D7600;fillColor=#60a917;spacingLeft=4;spacingRight=4;overflow=hidden;rotatable=0;points=[[0,0.5],[1,0.5]];portConstraint=eastwest;fontSize=18;whiteSpace=wrap;html=1;fontColor=#ffffff;" vertex="1" parent="zD3SIofIrI8dMV4qVYlW-43">
          <mxGeometry y="26" width="160" height="30" as="geometry" />
        </mxCell>
        <mxCell id="zD3SIofIrI8dMV4qVYlW-45" value="研究院介绍" style="text;strokeColor=#2D7600;fillColor=#60a917;spacingLeft=4;spacingRight=4;overflow=hidden;rotatable=0;points=[[0,0.5],[1,0.5]];portConstraint=eastwest;fontSize=18;whiteSpace=wrap;html=1;fontColor=#ffffff;" vertex="1" parent="zD3SIofIrI8dMV4qVYlW-43">
          <mxGeometry y="56" width="160" height="30" as="geometry" />
        </mxCell>
        <mxCell id="zD3SIofIrI8dMV4qVYlW-46" value="合作伙伴" style="text;strokeColor=#2D7600;fillColor=#60a917;spacingLeft=4;spacingRight=4;overflow=hidden;rotatable=0;points=[[0,0.5],[1,0.5]];portConstraint=eastwest;fontSize=18;whiteSpace=wrap;html=1;fontColor=#ffffff;" vertex="1" parent="zD3SIofIrI8dMV4qVYlW-43">
          <mxGeometry y="86" width="160" height="30" as="geometry" />
        </mxCell>
        <mxCell id="zD3SIofIrI8dMV4qVYlW-47" style="edgeStyle=orthogonalEdgeStyle;rounded=0;orthogonalLoop=1;jettySize=auto;html=1;exitX=1;exitY=0.5;exitDx=0;exitDy=0;entryX=-0.01;entryY=0.127;entryDx=0;entryDy=0;entryPerimeter=0;fontSize=18;" edge="1" parent="1" source="zD3SIofIrI8dMV4qVYlW-13" target="zD3SIofIrI8dMV4qVYlW-43">
          <mxGeometry relative="1" as="geometry">
            <mxPoint x="1670" y="497.5" as="targetPoint" />
            <Array as="points">
              <mxPoint x="1660" y="602.5" />
              <mxPoint x="1660" y="472.5" />
            </Array>
          </mxGeometry>
        </mxCell>
        <mxCell id="zD3SIofIrI8dMV4qVYlW-48" style="edgeStyle=orthogonalEdgeStyle;rounded=0;orthogonalLoop=1;jettySize=auto;html=1;exitX=1;exitY=0.75;exitDx=0;exitDy=0;entryX=1.003;entryY=0.098;entryDx=0;entryDy=0;entryPerimeter=0;" edge="1" parent="1" source="zD3SIofIrI8dMV4qVYlW-49" target="zD3SIofIrI8dMV4qVYlW-51">
          <mxGeometry relative="1" as="geometry" />
        </mxCell>
        <mxCell id="zD3SIofIrI8dMV4qVYlW-49" value="数据库总览" style="swimlane;fontStyle=0;childLayout=stackLayout;horizontal=1;startSize=26;horizontalStack=0;resizeParent=1;resizeParentMax=0;resizeLast=0;collapsible=1;marginBottom=0;align=center;fontSize=18;fillColor=#647687;fontColor=#ffffff;strokeColor=#314354;" vertex="1" parent="1">
          <mxGeometry x="1760" y="617.5" width="160" height="56" as="geometry">
            <mxRectangle x="827" y="372" width="130" height="40" as="alternateBounds" />
          </mxGeometry>
        </mxCell>
        <mxCell id="zD3SIofIrI8dMV4qVYlW-50" value="数据库卡片" style="text;strokeColor=#2D7600;fillColor=#60a917;spacingLeft=4;spacingRight=4;overflow=hidden;rotatable=0;points=[[0,0.5],[1,0.5]];portConstraint=eastwest;fontSize=18;whiteSpace=wrap;html=1;fontColor=#ffffff;" vertex="1" parent="zD3SIofIrI8dMV4qVYlW-49">
          <mxGeometry y="26" width="160" height="30" as="geometry" />
        </mxCell>
        <mxCell id="zD3SIofIrI8dMV4qVYlW-51" value="查询与下载" style="swimlane;fontStyle=0;childLayout=stackLayout;horizontal=1;startSize=26;horizontalStack=0;resizeParent=1;resizeParentMax=0;resizeLast=0;collapsible=1;marginBottom=0;align=center;fontSize=18;fillColor=#647687;fontColor=#ffffff;strokeColor=#314354;" vertex="1" parent="1">
          <mxGeometry x="1760.5" y="717.5" width="159.5" height="146" as="geometry">
            <mxRectangle x="1063" y="530" width="130" height="40" as="alternateBounds" />
          </mxGeometry>
        </mxCell>
        <mxCell id="zD3SIofIrI8dMV4qVYlW-52" value="报告查询" style="text;strokeColor=#2D7600;fillColor=#60a917;spacingLeft=4;spacingRight=4;overflow=hidden;rotatable=0;points=[[0,0.5],[1,0.5]];portConstraint=eastwest;fontSize=18;whiteSpace=wrap;html=1;fontColor=#ffffff;" vertex="1" parent="zD3SIofIrI8dMV4qVYlW-51">
          <mxGeometry y="26" width="159.5" height="30" as="geometry" />
        </mxCell>
        <mxCell id="zD3SIofIrI8dMV4qVYlW-53" value="数据查询" style="text;strokeColor=#2D7600;fillColor=#60a917;spacingLeft=4;spacingRight=4;overflow=hidden;rotatable=0;points=[[0,0.5],[1,0.5]];portConstraint=eastwest;fontSize=18;whiteSpace=wrap;html=1;fontColor=#ffffff;" vertex="1" parent="zD3SIofIrI8dMV4qVYlW-51">
          <mxGeometry y="56" width="159.5" height="30" as="geometry" />
        </mxCell>
        <mxCell id="zD3SIofIrI8dMV4qVYlW-54" value="字段说明" style="text;strokeColor=#2D7600;fillColor=#60a917;spacingLeft=4;spacingRight=4;overflow=hidden;rotatable=0;points=[[0,0.5],[1,0.5]];portConstraint=eastwest;fontSize=18;whiteSpace=wrap;html=1;fontColor=#ffffff;" vertex="1" parent="zD3SIofIrI8dMV4qVYlW-51">
          <mxGeometry y="86" width="159.5" height="30" as="geometry" />
        </mxCell>
        <mxCell id="zD3SIofIrI8dMV4qVYlW-55" value="数据库说明" style="text;strokeColor=#2D7600;fillColor=#60a917;spacingLeft=4;spacingRight=4;overflow=hidden;rotatable=0;points=[[0,0.5],[1,0.5]];portConstraint=eastwest;fontSize=18;whiteSpace=wrap;html=1;fontColor=#ffffff;" vertex="1" parent="zD3SIofIrI8dMV4qVYlW-51">
          <mxGeometry y="116" width="159.5" height="30" as="geometry" />
        </mxCell>
        <mxCell id="zD3SIofIrI8dMV4qVYlW-56" value="数据查询" style="swimlane;fontStyle=0;childLayout=stackLayout;horizontal=1;startSize=26;horizontalStack=0;resizeParent=1;resizeParentMax=0;resizeLast=0;collapsible=1;marginBottom=0;align=center;fontSize=18;fillColor=#647687;fontColor=#ffffff;strokeColor=#314354;" vertex="1" parent="1">
          <mxGeometry x="2161" y="547.5" width="160" height="236" as="geometry" />
        </mxCell>
        <mxCell id="zD3SIofIrI8dMV4qVYlW-57" value="年份" style="text;strokeColor=#006EAF;fillColor=#1ba1e2;spacingLeft=4;spacingRight=4;overflow=hidden;rotatable=0;points=[[0,0.5],[1,0.5]];portConstraint=eastwest;fontSize=18;whiteSpace=wrap;html=1;fontColor=#ffffff;gradientColor=#E3C800;" vertex="1" parent="zD3SIofIrI8dMV4qVYlW-56">
          <mxGeometry y="26" width="160" height="30" as="geometry" />
        </mxCell>
        <mxCell id="zD3SIofIrI8dMV4qVYlW-58" value="省份" style="text;strokeColor=#006EAF;fillColor=#1ba1e2;spacingLeft=4;spacingRight=4;overflow=hidden;rotatable=0;points=[[0,0.5],[1,0.5]];portConstraint=eastwest;fontSize=18;whiteSpace=wrap;html=1;fontColor=#ffffff;" vertex="1" parent="zD3SIofIrI8dMV4qVYlW-56">
          <mxGeometry y="56" width="160" height="30" as="geometry" />
        </mxCell>
        <mxCell id="zD3SIofIrI8dMV4qVYlW-59" value="指标/字段" style="text;strokeColor=#006EAF;fillColor=#1ba1e2;spacingLeft=4;spacingRight=4;overflow=hidden;rotatable=0;points=[[0,0.5],[1,0.5]];portConstraint=eastwest;fontSize=18;whiteSpace=wrap;html=1;fontColor=#ffffff;" vertex="1" parent="zD3SIofIrI8dMV4qVYlW-56">
          <mxGeometry y="86" width="160" height="30" as="geometry" />
        </mxCell>
        <mxCell id="zD3SIofIrI8dMV4qVYlW-60" value="收起条件/展开条件" style="text;strokeColor=#2D7600;fillColor=#60a917;spacingLeft=4;spacingRight=4;overflow=hidden;rotatable=0;points=[[0,0.5],[1,0.5]];portConstraint=eastwest;fontSize=18;whiteSpace=wrap;html=1;fontColor=#ffffff;" vertex="1" parent="zD3SIofIrI8dMV4qVYlW-56">
          <mxGeometry y="116" width="160" height="30" as="geometry" />
        </mxCell>
        <mxCell id="zD3SIofIrI8dMV4qVYlW-61" value="下载" style="text;strokeColor=#2D7600;fillColor=#60a917;spacingLeft=4;spacingRight=4;overflow=hidden;rotatable=0;points=[[0,0.5],[1,0.5]];portConstraint=eastwest;fontSize=18;whiteSpace=wrap;html=1;fontColor=#ffffff;" vertex="1" parent="zD3SIofIrI8dMV4qVYlW-56">
          <mxGeometry y="146" width="160" height="30" as="geometry" />
        </mxCell>
        <mxCell id="zD3SIofIrI8dMV4qVYlW-62" value="查询" style="text;strokeColor=#2D7600;fillColor=#60a917;spacingLeft=4;spacingRight=4;overflow=hidden;rotatable=0;points=[[0,0.5],[1,0.5]];portConstraint=eastwest;fontSize=18;whiteSpace=wrap;html=1;fontColor=#ffffff;" vertex="1" parent="zD3SIofIrI8dMV4qVYlW-56">
          <mxGeometry y="176" width="160" height="30" as="geometry" />
        </mxCell>
        <mxCell id="zD3SIofIrI8dMV4qVYlW-63" value="取消" style="text;strokeColor=#2D7600;fillColor=#60a917;spacingLeft=4;spacingRight=4;overflow=hidden;rotatable=0;points=[[0,0.5],[1,0.5]];portConstraint=eastwest;fontSize=18;whiteSpace=wrap;html=1;fontColor=#ffffff;" vertex="1" parent="zD3SIofIrI8dMV4qVYlW-56">
          <mxGeometry y="206" width="160" height="30" as="geometry" />
        </mxCell>
        <mxCell id="zD3SIofIrI8dMV4qVYlW-64" value="字段说明" style="swimlane;fontStyle=0;childLayout=stackLayout;horizontal=1;startSize=26;horizontalStack=0;resizeParent=1;resizeParentMax=0;resizeLast=0;collapsible=1;marginBottom=0;align=center;fontSize=18;fillColor=#647687;fontColor=#ffffff;strokeColor=#314354;" vertex="1" parent="1">
          <mxGeometry x="2161" y="807.5" width="160" height="146" as="geometry" />
        </mxCell>
        <mxCell id="zD3SIofIrI8dMV4qVYlW-65" value="编辑" style="text;strokeColor=#2D7600;fillColor=#60a917;spacingLeft=4;spacingRight=4;overflow=hidden;rotatable=0;points=[[0,0.5],[1,0.5]];portConstraint=eastwest;fontSize=18;whiteSpace=wrap;html=1;fontColor=#ffffff;" vertex="1" parent="zD3SIofIrI8dMV4qVYlW-64">
          <mxGeometry y="26" width="160" height="30" as="geometry" />
        </mxCell>
        <mxCell id="zD3SIofIrI8dMV4qVYlW-66" value="保存" style="text;strokeColor=#2D7600;fillColor=#60a917;spacingLeft=4;spacingRight=4;overflow=hidden;rotatable=0;points=[[0,0.5],[1,0.5]];portConstraint=eastwest;fontSize=18;whiteSpace=wrap;html=1;fontColor=#ffffff;" vertex="1" parent="zD3SIofIrI8dMV4qVYlW-64">
          <mxGeometry y="56" width="160" height="30" as="geometry" />
        </mxCell>
        <mxCell id="zD3SIofIrI8dMV4qVYlW-67" value="取消" style="text;strokeColor=#2D7600;fillColor=#60a917;spacingLeft=4;spacingRight=4;overflow=hidden;rotatable=0;points=[[0,0.5],[1,0.5]];portConstraint=eastwest;fontSize=18;whiteSpace=wrap;html=1;fontColor=#ffffff;" vertex="1" parent="zD3SIofIrI8dMV4qVYlW-64">
          <mxGeometry y="86" width="160" height="30" as="geometry" />
        </mxCell>
        <mxCell id="zD3SIofIrI8dMV4qVYlW-68" value="字段说明" style="text;strokeColor=#006EAF;fillColor=#1ba1e2;spacingLeft=4;spacingRight=4;overflow=hidden;rotatable=0;points=[[0,0.5],[1,0.5]];portConstraint=eastwest;fontSize=18;whiteSpace=wrap;html=1;fontColor=#ffffff;" vertex="1" parent="zD3SIofIrI8dMV4qVYlW-64">
          <mxGeometry y="116" width="160" height="30" as="geometry" />
        </mxCell>
        <mxCell id="zD3SIofIrI8dMV4qVYlW-69" value="数据库说明" style="swimlane;fontStyle=0;childLayout=stackLayout;horizontal=1;startSize=26;horizontalStack=0;resizeParent=1;resizeParentMax=0;resizeLast=0;collapsible=1;marginBottom=0;align=center;fontSize=18;fillColor=#647687;fontColor=#ffffff;strokeColor=#314354;" vertex="1" parent="1">
          <mxGeometry x="2161" y="977.5" width="160" height="146" as="geometry" />
        </mxCell>
        <mxCell id="zD3SIofIrI8dMV4qVYlW-70" value="编辑" style="text;strokeColor=#2D7600;fillColor=#60a917;spacingLeft=4;spacingRight=4;overflow=hidden;rotatable=0;points=[[0,0.5],[1,0.5]];portConstraint=eastwest;fontSize=18;whiteSpace=wrap;html=1;fontColor=#ffffff;" vertex="1" parent="zD3SIofIrI8dMV4qVYlW-69">
          <mxGeometry y="26" width="160" height="30" as="geometry" />
        </mxCell>
        <mxCell id="zD3SIofIrI8dMV4qVYlW-71" value="保存" style="text;strokeColor=#2D7600;fillColor=#60a917;spacingLeft=4;spacingRight=4;overflow=hidden;rotatable=0;points=[[0,0.5],[1,0.5]];portConstraint=eastwest;fontSize=18;whiteSpace=wrap;html=1;fontColor=#ffffff;" vertex="1" parent="zD3SIofIrI8dMV4qVYlW-69">
          <mxGeometry y="56" width="160" height="30" as="geometry" />
        </mxCell>
        <mxCell id="zD3SIofIrI8dMV4qVYlW-72" value="取消" style="text;strokeColor=#2D7600;fillColor=#60a917;spacingLeft=4;spacingRight=4;overflow=hidden;rotatable=0;points=[[0,0.5],[1,0.5]];portConstraint=eastwest;fontSize=18;whiteSpace=wrap;html=1;fontColor=#ffffff;" vertex="1" parent="zD3SIofIrI8dMV4qVYlW-69">
          <mxGeometry y="86" width="160" height="30" as="geometry" />
        </mxCell>
        <mxCell id="zD3SIofIrI8dMV4qVYlW-73" value="数据库简介" style="text;strokeColor=#006EAF;fillColor=#1ba1e2;spacingLeft=4;spacingRight=4;overflow=hidden;rotatable=0;points=[[0,0.5],[1,0.5]];portConstraint=eastwest;fontSize=18;whiteSpace=wrap;html=1;fontColor=#ffffff;" vertex="1" parent="zD3SIofIrI8dMV4qVYlW-69">
          <mxGeometry y="116" width="160" height="30" as="geometry" />
        </mxCell>
        <mxCell id="zD3SIofIrI8dMV4qVYlW-74" value="报告查询" style="swimlane;fontStyle=0;childLayout=stackLayout;horizontal=1;startSize=26;horizontalStack=0;resizeParent=1;resizeParentMax=0;resizeLast=0;collapsible=1;marginBottom=0;align=center;fontSize=18;fillColor=#647687;fontColor=#ffffff;strokeColor=#314354;" vertex="1" parent="1">
          <mxGeometry x="2161" y="317.5" width="160" height="206" as="geometry" />
        </mxCell>
        <mxCell id="zD3SIofIrI8dMV4qVYlW-75" value="类型" style="text;strokeColor=#B09500;fillColor=#e3c800;spacingLeft=4;spacingRight=4;overflow=hidden;rotatable=0;points=[[0,0.5],[1,0.5]];portConstraint=eastwest;fontSize=18;whiteSpace=wrap;html=1;fontColor=#000000;" vertex="1" parent="zD3SIofIrI8dMV4qVYlW-74">
          <mxGeometry y="26" width="160" height="30" as="geometry" />
        </mxCell>
        <mxCell id="zD3SIofIrI8dMV4qVYlW-76" value="省份" style="text;strokeColor=#B09500;fillColor=#e3c800;spacingLeft=4;spacingRight=4;overflow=hidden;rotatable=0;points=[[0,0.5],[1,0.5]];portConstraint=eastwest;fontSize=18;whiteSpace=wrap;html=1;fontColor=#000000;" vertex="1" parent="zD3SIofIrI8dMV4qVYlW-74">
          <mxGeometry y="56" width="160" height="30" as="geometry" />
        </mxCell>
        <mxCell id="zD3SIofIrI8dMV4qVYlW-77" value="年份" style="text;strokeColor=#B09500;fillColor=#e3c800;spacingLeft=4;spacingRight=4;overflow=hidden;rotatable=0;points=[[0,0.5],[1,0.5]];portConstraint=eastwest;fontSize=18;whiteSpace=wrap;html=1;fontColor=#000000;" vertex="1" parent="zD3SIofIrI8dMV4qVYlW-74">
          <mxGeometry y="86" width="160" height="30" as="geometry" />
        </mxCell>
        <mxCell id="zD3SIofIrI8dMV4qVYlW-78" value="查询" style="text;strokeColor=#2D7600;fillColor=#60a917;spacingLeft=4;spacingRight=4;overflow=hidden;rotatable=0;points=[[0,0.5],[1,0.5]];portConstraint=eastwest;fontSize=18;whiteSpace=wrap;html=1;fontColor=#ffffff;" vertex="1" parent="zD3SIofIrI8dMV4qVYlW-74">
          <mxGeometry y="116" width="160" height="30" as="geometry" />
        </mxCell>
        <mxCell id="zD3SIofIrI8dMV4qVYlW-79" value="重置" style="text;strokeColor=#2D7600;fillColor=#60a917;spacingLeft=4;spacingRight=4;overflow=hidden;rotatable=0;points=[[0,0.5],[1,0.5]];portConstraint=eastwest;fontSize=18;whiteSpace=wrap;html=1;fontColor=#ffffff;" vertex="1" parent="zD3SIofIrI8dMV4qVYlW-74">
          <mxGeometry y="146" width="160" height="30" as="geometry" />
        </mxCell>
        <mxCell id="zD3SIofIrI8dMV4qVYlW-80" value="翻页" style="text;strokeColor=#2D7600;fillColor=#60a917;spacingLeft=4;spacingRight=4;overflow=hidden;rotatable=0;points=[[0,0.5],[1,0.5]];portConstraint=eastwest;fontSize=18;whiteSpace=wrap;html=1;fontColor=#ffffff;" vertex="1" parent="zD3SIofIrI8dMV4qVYlW-74">
          <mxGeometry y="176" width="160" height="30" as="geometry" />
        </mxCell>
        <mxCell id="zD3SIofIrI8dMV4qVYlW-81" value="用户管理" style="swimlane;fontStyle=0;childLayout=stackLayout;horizontal=1;startSize=26;horizontalStack=0;resizeParent=1;resizeParentMax=0;resizeLast=0;collapsible=1;marginBottom=0;align=center;fontSize=18;fillColor=#647687;fontColor=#ffffff;strokeColor=#314354;" vertex="1" parent="1">
          <mxGeometry x="1760" y="1197.5" width="150" height="116" as="geometry" />
        </mxCell>
        <mxCell id="zD3SIofIrI8dMV4qVYlW-82" value="用户管理" style="text;strokeColor=#2D7600;fillColor=#60a917;spacingLeft=4;spacingRight=4;overflow=hidden;rotatable=0;points=[[0,0.5],[1,0.5]];portConstraint=eastwest;fontSize=18;whiteSpace=wrap;html=1;fontColor=#ffffff;" vertex="1" parent="zD3SIofIrI8dMV4qVYlW-81">
          <mxGeometry y="26" width="150" height="30" as="geometry" />
        </mxCell>
        <mxCell id="zD3SIofIrI8dMV4qVYlW-83" value="个人中心" style="text;strokeColor=#2D7600;fillColor=#60a917;spacingLeft=4;spacingRight=4;overflow=hidden;rotatable=0;points=[[0,0.5],[1,0.5]];portConstraint=eastwest;fontSize=18;whiteSpace=wrap;html=1;fontColor=#ffffff;" vertex="1" parent="zD3SIofIrI8dMV4qVYlW-81">
          <mxGeometry y="56" width="150" height="30" as="geometry" />
        </mxCell>
        <mxCell id="zD3SIofIrI8dMV4qVYlW-84" value="权限管理" style="text;strokeColor=#2D7600;fillColor=#60a917;spacingLeft=4;spacingRight=4;overflow=hidden;rotatable=0;points=[[0,0.5],[1,0.5]];portConstraint=eastwest;fontSize=18;whiteSpace=wrap;html=1;fontColor=#ffffff;" vertex="1" parent="zD3SIofIrI8dMV4qVYlW-81">
          <mxGeometry y="86" width="150" height="30" as="geometry" />
        </mxCell>
        <mxCell id="zD3SIofIrI8dMV4qVYlW-85" value="个人中心" style="swimlane;fontStyle=0;childLayout=stackLayout;horizontal=1;startSize=26;horizontalStack=0;resizeParent=1;resizeParentMax=0;resizeLast=0;collapsible=1;marginBottom=0;align=center;fontSize=18;fillColor=#647687;fontColor=#ffffff;strokeColor=#314354;" vertex="1" parent="1">
          <mxGeometry x="2161" y="1577.5" width="160" height="266" as="geometry" />
        </mxCell>
        <mxCell id="zD3SIofIrI8dMV4qVYlW-86" value="修改" style="text;strokeColor=#2D7600;fillColor=#60a917;spacingLeft=4;spacingRight=4;overflow=hidden;rotatable=0;points=[[0,0.5],[1,0.5]];portConstraint=eastwest;fontSize=18;whiteSpace=wrap;html=1;fontColor=#ffffff;" vertex="1" parent="zD3SIofIrI8dMV4qVYlW-85">
          <mxGeometry y="26" width="160" height="30" as="geometry" />
        </mxCell>
        <mxCell id="zD3SIofIrI8dMV4qVYlW-87" value="姓名" style="text;strokeColor=#006EAF;fillColor=#1ba1e2;spacingLeft=4;spacingRight=4;overflow=hidden;rotatable=0;points=[[0,0.5],[1,0.5]];portConstraint=eastwest;fontSize=18;whiteSpace=wrap;html=1;fontColor=#ffffff;" vertex="1" parent="zD3SIofIrI8dMV4qVYlW-85">
          <mxGeometry y="56" width="160" height="30" as="geometry" />
        </mxCell>
        <mxCell id="zD3SIofIrI8dMV4qVYlW-88" value="院系" style="text;strokeColor=#006EAF;fillColor=#1ba1e2;spacingLeft=4;spacingRight=4;overflow=hidden;rotatable=0;points=[[0,0.5],[1,0.5]];portConstraint=eastwest;fontSize=18;whiteSpace=wrap;html=1;fontColor=#ffffff;" vertex="1" parent="zD3SIofIrI8dMV4qVYlW-85">
          <mxGeometry y="86" width="160" height="30" as="geometry" />
        </mxCell>
        <mxCell id="zD3SIofIrI8dMV4qVYlW-89" value="邮箱" style="text;strokeColor=#006EAF;fillColor=#1ba1e2;spacingLeft=4;spacingRight=4;overflow=hidden;rotatable=0;points=[[0,0.5],[1,0.5]];portConstraint=eastwest;fontSize=18;whiteSpace=wrap;html=1;fontColor=#ffffff;" vertex="1" parent="zD3SIofIrI8dMV4qVYlW-85">
          <mxGeometry y="116" width="160" height="30" as="geometry" />
        </mxCell>
        <mxCell id="zD3SIofIrI8dMV4qVYlW-90" value="电话" style="text;strokeColor=#006EAF;fillColor=#1ba1e2;spacingLeft=4;spacingRight=4;overflow=hidden;rotatable=0;points=[[0,0.5],[1,0.5]];portConstraint=eastwest;fontSize=18;whiteSpace=wrap;html=1;fontColor=#ffffff;" vertex="1" parent="zD3SIofIrI8dMV4qVYlW-85">
          <mxGeometry y="146" width="160" height="30" as="geometry" />
        </mxCell>
        <mxCell id="zD3SIofIrI8dMV4qVYlW-91" value="账号" style="text;strokeColor=#006EAF;fillColor=#1ba1e2;spacingLeft=4;spacingRight=4;overflow=hidden;rotatable=0;points=[[0,0.5],[1,0.5]];portConstraint=eastwest;fontSize=18;whiteSpace=wrap;html=1;fontColor=#ffffff;" vertex="1" parent="zD3SIofIrI8dMV4qVYlW-85">
          <mxGeometry y="176" width="160" height="30" as="geometry" />
        </mxCell>
        <mxCell id="zD3SIofIrI8dMV4qVYlW-92" value="密码" style="text;strokeColor=#006EAF;fillColor=#1ba1e2;spacingLeft=4;spacingRight=4;overflow=hidden;rotatable=0;points=[[0,0.5],[1,0.5]];portConstraint=eastwest;fontSize=18;whiteSpace=wrap;html=1;fontColor=#ffffff;" vertex="1" parent="zD3SIofIrI8dMV4qVYlW-85">
          <mxGeometry y="206" width="160" height="30" as="geometry" />
        </mxCell>
        <mxCell id="zD3SIofIrI8dMV4qVYlW-93" value="修改密码" style="text;strokeColor=#2D7600;fillColor=#60a917;spacingLeft=4;spacingRight=4;overflow=hidden;rotatable=0;points=[[0,0.5],[1,0.5]];portConstraint=eastwest;fontSize=18;whiteSpace=wrap;html=1;fontColor=#ffffff;" vertex="1" parent="zD3SIofIrI8dMV4qVYlW-85">
          <mxGeometry y="236" width="160" height="30" as="geometry" />
        </mxCell>
        <mxCell id="zD3SIofIrI8dMV4qVYlW-94" value="用户管理" style="swimlane;fontStyle=0;childLayout=stackLayout;horizontal=1;startSize=26;horizontalStack=0;resizeParent=1;resizeParentMax=0;resizeLast=0;collapsible=1;marginBottom=0;align=center;fontSize=18;fillColor=#647687;fontColor=#ffffff;strokeColor=#314354;" vertex="1" parent="1">
          <mxGeometry x="2161" y="1223.5" width="160" height="326" as="geometry" />
        </mxCell>
        <mxCell id="zD3SIofIrI8dMV4qVYlW-95" value="增加" style="text;strokeColor=#2D7600;fillColor=#60a917;spacingLeft=4;spacingRight=4;overflow=hidden;rotatable=0;points=[[0,0.5],[1,0.5]];portConstraint=eastwest;fontSize=18;whiteSpace=wrap;html=1;fontColor=#ffffff;" vertex="1" parent="zD3SIofIrI8dMV4qVYlW-94">
          <mxGeometry y="26" width="160" height="30" as="geometry" />
        </mxCell>
        <mxCell id="zD3SIofIrI8dMV4qVYlW-96" value="姓名" style="text;strokeColor=#006EAF;fillColor=#1ba1e2;spacingLeft=4;spacingRight=4;overflow=hidden;rotatable=0;points=[[0,0.5],[1,0.5]];portConstraint=eastwest;fontSize=18;whiteSpace=wrap;html=1;fontColor=#ffffff;" vertex="1" parent="zD3SIofIrI8dMV4qVYlW-94">
          <mxGeometry y="56" width="160" height="30" as="geometry" />
        </mxCell>
        <mxCell id="zD3SIofIrI8dMV4qVYlW-97" value="院系" style="text;strokeColor=#006EAF;fillColor=#1ba1e2;spacingLeft=4;spacingRight=4;overflow=hidden;rotatable=0;points=[[0,0.5],[1,0.5]];portConstraint=eastwest;fontSize=18;whiteSpace=wrap;html=1;fontColor=#ffffff;" vertex="1" parent="zD3SIofIrI8dMV4qVYlW-94">
          <mxGeometry y="86" width="160" height="30" as="geometry" />
        </mxCell>
        <mxCell id="zD3SIofIrI8dMV4qVYlW-98" value="邮箱" style="text;strokeColor=#006EAF;fillColor=#1ba1e2;spacingLeft=4;spacingRight=4;overflow=hidden;rotatable=0;points=[[0,0.5],[1,0.5]];portConstraint=eastwest;fontSize=18;whiteSpace=wrap;html=1;fontColor=#ffffff;" vertex="1" parent="zD3SIofIrI8dMV4qVYlW-94">
          <mxGeometry y="116" width="160" height="30" as="geometry" />
        </mxCell>
        <mxCell id="zD3SIofIrI8dMV4qVYlW-99" value="电话" style="text;strokeColor=#006EAF;fillColor=#1ba1e2;spacingLeft=4;spacingRight=4;overflow=hidden;rotatable=0;points=[[0,0.5],[1,0.5]];portConstraint=eastwest;fontSize=18;whiteSpace=wrap;html=1;fontColor=#ffffff;" vertex="1" parent="zD3SIofIrI8dMV4qVYlW-94">
          <mxGeometry y="146" width="160" height="30" as="geometry" />
        </mxCell>
        <mxCell id="zD3SIofIrI8dMV4qVYlW-100" value="账号" style="text;strokeColor=#006EAF;fillColor=#1ba1e2;spacingLeft=4;spacingRight=4;overflow=hidden;rotatable=0;points=[[0,0.5],[1,0.5]];portConstraint=eastwest;fontSize=18;whiteSpace=wrap;html=1;fontColor=#ffffff;" vertex="1" parent="zD3SIofIrI8dMV4qVYlW-94">
          <mxGeometry y="176" width="160" height="30" as="geometry" />
        </mxCell>
        <mxCell id="zD3SIofIrI8dMV4qVYlW-101" value="密码" style="text;strokeColor=#006EAF;fillColor=#1ba1e2;spacingLeft=4;spacingRight=4;overflow=hidden;rotatable=0;points=[[0,0.5],[1,0.5]];portConstraint=eastwest;fontSize=18;whiteSpace=wrap;html=1;fontColor=#ffffff;" vertex="1" parent="zD3SIofIrI8dMV4qVYlW-94">
          <mxGeometry y="206" width="160" height="30" as="geometry" />
        </mxCell>
        <mxCell id="zD3SIofIrI8dMV4qVYlW-102" value="状态" style="text;strokeColor=#2D7600;fillColor=#60a917;spacingLeft=4;spacingRight=4;overflow=hidden;rotatable=0;points=[[0,0.5],[1,0.5]];portConstraint=eastwest;fontSize=18;whiteSpace=wrap;html=1;fontColor=#ffffff;" vertex="1" parent="zD3SIofIrI8dMV4qVYlW-94">
          <mxGeometry y="236" width="160" height="30" as="geometry" />
        </mxCell>
        <mxCell id="zD3SIofIrI8dMV4qVYlW-103" value="保存" style="text;strokeColor=#2D7600;fillColor=#60a917;spacingLeft=4;spacingRight=4;overflow=hidden;rotatable=0;points=[[0,0.5],[1,0.5]];portConstraint=eastwest;fontSize=18;whiteSpace=wrap;html=1;fontColor=#ffffff;" vertex="1" parent="zD3SIofIrI8dMV4qVYlW-94">
          <mxGeometry y="266" width="160" height="30" as="geometry" />
        </mxCell>
        <mxCell id="zD3SIofIrI8dMV4qVYlW-104" value="取消" style="text;strokeColor=#2D7600;fillColor=#60a917;spacingLeft=4;spacingRight=4;overflow=hidden;rotatable=0;points=[[0,0.5],[1,0.5]];portConstraint=eastwest;fontSize=18;whiteSpace=wrap;html=1;fontColor=#ffffff;" vertex="1" parent="zD3SIofIrI8dMV4qVYlW-94">
          <mxGeometry y="296" width="160" height="30" as="geometry" />
        </mxCell>
        <mxCell id="zD3SIofIrI8dMV4qVYlW-105" value="搜索菜单" style="swimlane;fontStyle=0;childLayout=stackLayout;horizontal=1;startSize=26;horizontalStack=0;resizeParent=1;resizeParentMax=0;resizeLast=0;collapsible=1;marginBottom=0;align=center;fontSize=18;fillColor=#647687;fontColor=#ffffff;strokeColor=#314354;" vertex="1" parent="1">
          <mxGeometry x="1760.5" y="1357.5" width="150" height="56" as="geometry" />
        </mxCell>
        <mxCell id="zD3SIofIrI8dMV4qVYlW-106" value="搜索框" style="text;strokeColor=#2D7600;fillColor=#60a917;spacingLeft=4;spacingRight=4;overflow=hidden;rotatable=0;points=[[0,0.5],[1,0.5]];portConstraint=eastwest;fontSize=18;whiteSpace=wrap;html=1;fontColor=#ffffff;" vertex="1" parent="zD3SIofIrI8dMV4qVYlW-105">
          <mxGeometry y="26" width="150" height="30" as="geometry" />
        </mxCell>
        <mxCell id="zD3SIofIrI8dMV4qVYlW-107" style="edgeStyle=orthogonalEdgeStyle;rounded=0;orthogonalLoop=1;jettySize=auto;html=1;exitX=1;exitY=0.5;exitDx=0;exitDy=0;entryX=0;entryY=0.25;entryDx=0;entryDy=0;fontSize=18;" edge="1" parent="1" source="zD3SIofIrI8dMV4qVYlW-37" target="zD3SIofIrI8dMV4qVYlW-105">
          <mxGeometry relative="1" as="geometry">
            <mxPoint x="1670" y="1247.5" as="targetPoint" />
            <Array as="points">
              <mxPoint x="1600" y="842.5" />
              <mxPoint x="1600" y="1371.5" />
            </Array>
          </mxGeometry>
        </mxCell>
        <mxCell id="zD3SIofIrI8dMV4qVYlW-108" style="edgeStyle=orthogonalEdgeStyle;rounded=0;orthogonalLoop=1;jettySize=auto;html=1;exitX=0;exitY=0.5;exitDx=0;exitDy=0;entryX=0.995;entryY=0.088;entryDx=0;entryDy=0;entryPerimeter=0;fontSize=18;" edge="1" parent="1" source="zD3SIofIrI8dMV4qVYlW-40" target="zD3SIofIrI8dMV4qVYlW-1">
          <mxGeometry relative="1" as="geometry" />
        </mxCell>
        <mxCell id="zD3SIofIrI8dMV4qVYlW-109" style="edgeStyle=orthogonalEdgeStyle;rounded=0;orthogonalLoop=1;jettySize=auto;html=1;exitX=1;exitY=0.5;exitDx=0;exitDy=0;entryX=-0.007;entryY=0.121;entryDx=0;entryDy=0;entryPerimeter=0;fontSize=18;" edge="1" parent="1" source="zD3SIofIrI8dMV4qVYlW-25" target="zD3SIofIrI8dMV4qVYlW-81">
          <mxGeometry relative="1" as="geometry">
            <Array as="points">
              <mxPoint x="1660" y="722.5" />
              <mxPoint x="1660" y="1211.5" />
            </Array>
          </mxGeometry>
        </mxCell>
        <mxCell id="zD3SIofIrI8dMV4qVYlW-110" style="edgeStyle=orthogonalEdgeStyle;rounded=0;orthogonalLoop=1;jettySize=auto;html=1;exitX=1;exitY=0.5;exitDx=0;exitDy=0;entryX=-0.006;entryY=0.055;entryDx=0;entryDy=0;entryPerimeter=0;fontSize=18;" edge="1" parent="1" source="zD3SIofIrI8dMV4qVYlW-83" target="zD3SIofIrI8dMV4qVYlW-85">
          <mxGeometry relative="1" as="geometry">
            <Array as="points">
              <mxPoint x="2040" y="1268.5" />
              <mxPoint x="2040" y="1592.5" />
            </Array>
          </mxGeometry>
        </mxCell>
        <mxCell id="zD3SIofIrI8dMV4qVYlW-111" style="edgeStyle=orthogonalEdgeStyle;rounded=0;orthogonalLoop=1;jettySize=auto;html=1;exitX=1;exitY=0.5;exitDx=0;exitDy=0;entryX=-0.006;entryY=0.056;entryDx=0;entryDy=0;entryPerimeter=0;fontSize=18;" edge="1" parent="1" source="zD3SIofIrI8dMV4qVYlW-28" target="zD3SIofIrI8dMV4qVYlW-85">
          <mxGeometry relative="1" as="geometry">
            <Array as="points">
              <mxPoint x="1630" y="752.5" />
              <mxPoint x="1630" y="1337.5" />
              <mxPoint x="2040" y="1337.5" />
              <mxPoint x="2040" y="1592.5" />
            </Array>
          </mxGeometry>
        </mxCell>
        <mxCell id="zD3SIofIrI8dMV4qVYlW-112" value="&lt;h1 style=&quot;&quot;&gt;&lt;font style=&quot;font-size: 30px;&quot;&gt;广大数据平台逻辑流程图&lt;/font&gt;&lt;/h1&gt;&lt;p style=&quot;font-size: 20px;&quot;&gt;&lt;font style=&quot;font-size: 20px;&quot;&gt;&lt;b style=&quot;font-size: 20px;&quot;&gt;&lt;span style=&quot;white-space: pre; font-size: 20px;&quot;&gt; &lt;/span&gt;&lt;span style=&quot;white-space: pre; font-size: 20px;&quot;&gt; &lt;/span&gt;&lt;span style=&quot;white-space: pre; font-size: 20px;&quot;&gt; &lt;/span&gt;&lt;span style=&quot;white-space: pre; font-size: 20px;&quot;&gt; &lt;/span&gt;&lt;span style=&quot;white-space: pre; font-size: 20px;&quot;&gt; &lt;/span&gt;&lt;span style=&quot;white-space: pre; font-size: 20px;&quot;&gt; &lt;/span&gt;&lt;span style=&quot;white-space: pre; font-size: 20px;&quot;&gt; &lt;span style=&quot;white-space: pre; font-size: 20px;&quot;&gt; &lt;/span&gt;&lt;/span&gt;说明：&lt;/b&gt;&lt;/font&gt;&lt;/p&gt;&lt;p style=&quot;font-size: 20px;&quot;&gt;&lt;span style=&quot;white-space: pre; font-size: 20px;&quot;&gt; &lt;/span&gt;&lt;br style=&quot;font-size: 20px;&quot;&gt;&lt;/p&gt;" style="text;html=1;strokeColor=none;fillColor=none;spacing=5;spacingTop=-20;whiteSpace=wrap;overflow=hidden;rounded=0;fontSize=20;" vertex="1" parent="1">
          <mxGeometry x="30" y="30" width="1770" height="160" as="geometry" />
        </mxCell>
        <mxCell id="zD3SIofIrI8dMV4qVYlW-113" value="需要判断的按钮" style="rounded=0;whiteSpace=wrap;html=1;fillColor=#f5f5f5;strokeColor=#666666;gradientColor=#b3b3b3;fontColor=#000000;fontSize=18;" vertex="1" parent="1">
          <mxGeometry x="910" y="110" width="130" height="40" as="geometry" />
        </mxCell>
        <mxCell id="zD3SIofIrI8dMV4qVYlW-114" value="页面名称" style="rounded=0;whiteSpace=wrap;html=1;fillColor=#647687;fontColor=#ffffff;strokeColor=#314354;fontSize=18;" vertex="1" parent="1">
          <mxGeometry x="460" y="110" width="120" height="40" as="geometry" />
        </mxCell>
        <mxCell id="zD3SIofIrI8dMV4qVYlW-115" value="文本输入框" style="rounded=0;whiteSpace=wrap;html=1;fillColor=#1ba1e2;fontColor=#ffffff;strokeColor=#006EAF;fontSize=18;" vertex="1" parent="1">
          <mxGeometry x="610" y="110" width="120" height="40" as="geometry" />
        </mxCell>
        <mxCell id="zD3SIofIrI8dMV4qVYlW-116" value="按钮" style="rounded=0;whiteSpace=wrap;html=1;fillColor=#60a917;fontColor=#ffffff;strokeColor=#2D7600;fontSize=18;" vertex="1" parent="1">
          <mxGeometry x="760" y="110" width="120" height="40" as="geometry" />
        </mxCell>
        <mxCell id="zD3SIofIrI8dMV4qVYlW-117" value="下拉框" style="rounded=0;whiteSpace=wrap;html=1;fillColor=#e3c800;fontColor=#000000;strokeColor=#B09500;fontSize=18;" vertex="1" parent="1">
          <mxGeometry x="1070" y="110" width="120" height="40" as="geometry" />
        </mxCell>
        <mxCell id="zD3SIofIrI8dMV4qVYlW-118" value="登录页" style="rounded=0;whiteSpace=wrap;html=1;fillColor=#647687;fontColor=#ffffff;strokeColor=#314354;" vertex="1" parent="1">
          <mxGeometry x="60" y="656" width="120" height="60" as="geometry" />
        </mxCell>
        <mxCell id="zD3SIofIrI8dMV4qVYlW-119" style="edgeStyle=orthogonalEdgeStyle;rounded=0;orthogonalLoop=1;jettySize=auto;html=1;exitX=1;exitY=0.5;exitDx=0;exitDy=0;entryX=0;entryY=0.5;entryDx=0;entryDy=0;" edge="1" parent="1" source="zD3SIofIrI8dMV4qVYlW-118" target="zD3SIofIrI8dMV4qVYlW-127">
          <mxGeometry relative="1" as="geometry">
            <mxPoint x="380" y="597.5" as="sourcePoint" />
          </mxGeometry>
        </mxCell>
        <mxCell id="zD3SIofIrI8dMV4qVYlW-120" style="edgeStyle=orthogonalEdgeStyle;rounded=0;orthogonalLoop=1;jettySize=auto;html=1;exitX=1;exitY=0.5;exitDx=0;exitDy=0;entryX=0;entryY=0.5;entryDx=0;entryDy=0;" edge="1" parent="1" source="zD3SIofIrI8dMV4qVYlW-118" target="zD3SIofIrI8dMV4qVYlW-129">
          <mxGeometry relative="1" as="geometry">
            <mxPoint x="380" y="597.5" as="sourcePoint" />
          </mxGeometry>
        </mxCell>
        <mxCell id="zD3SIofIrI8dMV4qVYlW-121" style="edgeStyle=orthogonalEdgeStyle;rounded=0;orthogonalLoop=1;jettySize=auto;html=1;exitX=1;exitY=0.5;exitDx=0;exitDy=0;entryX=0;entryY=0.5;entryDx=0;entryDy=0;" edge="1" parent="1" source="zD3SIofIrI8dMV4qVYlW-118" target="zD3SIofIrI8dMV4qVYlW-131">
          <mxGeometry relative="1" as="geometry">
            <mxPoint x="380" y="597.5" as="sourcePoint" />
          </mxGeometry>
        </mxCell>
        <mxCell id="zD3SIofIrI8dMV4qVYlW-122" style="edgeStyle=orthogonalEdgeStyle;rounded=0;orthogonalLoop=1;jettySize=auto;html=1;exitX=1;exitY=0.5;exitDx=0;exitDy=0;entryX=0;entryY=0.5;entryDx=0;entryDy=0;" edge="1" parent="1" source="zD3SIofIrI8dMV4qVYlW-118" target="zD3SIofIrI8dMV4qVYlW-132">
          <mxGeometry relative="1" as="geometry">
            <mxPoint x="380" y="597.5" as="sourcePoint" />
          </mxGeometry>
        </mxCell>
        <mxCell id="zD3SIofIrI8dMV4qVYlW-123" style="edgeStyle=orthogonalEdgeStyle;rounded=0;orthogonalLoop=1;jettySize=auto;html=1;exitX=1;exitY=0.5;exitDx=0;exitDy=0;entryX=0;entryY=0.5;entryDx=0;entryDy=0;" edge="1" parent="1" source="zD3SIofIrI8dMV4qVYlW-118" target="zD3SIofIrI8dMV4qVYlW-136">
          <mxGeometry relative="1" as="geometry">
            <mxPoint x="380" y="597.5" as="sourcePoint" />
          </mxGeometry>
        </mxCell>
        <mxCell id="zD3SIofIrI8dMV4qVYlW-124" style="edgeStyle=orthogonalEdgeStyle;rounded=0;orthogonalLoop=1;jettySize=auto;html=1;exitX=1;exitY=0.5;exitDx=0;exitDy=0;entryX=0;entryY=0.5;entryDx=0;entryDy=0;" edge="1" parent="1" source="zD3SIofIrI8dMV4qVYlW-127" target="zD3SIofIrI8dMV4qVYlW-137">
          <mxGeometry relative="1" as="geometry" />
        </mxCell>
        <mxCell id="zD3SIofIrI8dMV4qVYlW-125" style="edgeStyle=orthogonalEdgeStyle;rounded=0;orthogonalLoop=1;jettySize=auto;html=1;exitX=1;exitY=0.5;exitDx=0;exitDy=0;entryX=0;entryY=0.5;entryDx=0;entryDy=0;" edge="1" parent="1" source="zD3SIofIrI8dMV4qVYlW-127" target="zD3SIofIrI8dMV4qVYlW-138">
          <mxGeometry relative="1" as="geometry" />
        </mxCell>
        <mxCell id="zD3SIofIrI8dMV4qVYlW-126" style="edgeStyle=orthogonalEdgeStyle;rounded=0;orthogonalLoop=1;jettySize=auto;html=1;exitX=1;exitY=0.5;exitDx=0;exitDy=0;entryX=0;entryY=0.5;entryDx=0;entryDy=0;" edge="1" parent="1" source="zD3SIofIrI8dMV4qVYlW-127" target="zD3SIofIrI8dMV4qVYlW-139">
          <mxGeometry relative="1" as="geometry" />
        </mxCell>
        <mxCell id="zD3SIofIrI8dMV4qVYlW-127" value="首页" style="rounded=0;whiteSpace=wrap;html=1;fillColor=#647687;fontColor=#ffffff;strokeColor=#314354;" vertex="1" parent="1">
          <mxGeometry x="360" y="387.5" width="120" height="60" as="geometry" />
        </mxCell>
        <mxCell id="zD3SIofIrI8dMV4qVYlW-128" style="edgeStyle=orthogonalEdgeStyle;rounded=0;orthogonalLoop=1;jettySize=auto;html=1;exitX=0.5;exitY=1;exitDx=0;exitDy=0;entryX=0.5;entryY=0;entryDx=0;entryDy=0;" edge="1" parent="1" source="zD3SIofIrI8dMV4qVYlW-129" target="zD3SIofIrI8dMV4qVYlW-131">
          <mxGeometry relative="1" as="geometry" />
        </mxCell>
        <mxCell id="zD3SIofIrI8dMV4qVYlW-129" value="数据库总览" style="rounded=0;whiteSpace=wrap;html=1;fillColor=#647687;fontColor=#ffffff;strokeColor=#314354;" vertex="1" parent="1">
          <mxGeometry x="360" y="567.5" width="120" height="60" as="geometry" />
        </mxCell>
        <mxCell id="zD3SIofIrI8dMV4qVYlW-130" style="edgeStyle=orthogonalEdgeStyle;rounded=0;orthogonalLoop=1;jettySize=auto;html=1;exitX=1;exitY=0.5;exitDx=0;exitDy=0;entryX=0;entryY=0.5;entryDx=0;entryDy=0;" edge="1" parent="1" source="zD3SIofIrI8dMV4qVYlW-131" target="zD3SIofIrI8dMV4qVYlW-146">
          <mxGeometry relative="1" as="geometry" />
        </mxCell>
        <mxCell id="zD3SIofIrI8dMV4qVYlW-131" value="查询与下载" style="rounded=0;whiteSpace=wrap;html=1;fillColor=#647687;fontColor=#ffffff;strokeColor=#314354;" vertex="1" parent="1">
          <mxGeometry x="360" y="657.5" width="120" height="60" as="geometry" />
        </mxCell>
        <mxCell id="zD3SIofIrI8dMV4qVYlW-132" value="数据可视化" style="rounded=0;whiteSpace=wrap;html=1;fillColor=#647687;fontColor=#ffffff;strokeColor=#314354;" vertex="1" parent="1">
          <mxGeometry x="360" y="747.5" width="120" height="60" as="geometry" />
        </mxCell>
        <mxCell id="zD3SIofIrI8dMV4qVYlW-133" style="edgeStyle=orthogonalEdgeStyle;rounded=0;orthogonalLoop=1;jettySize=auto;html=1;exitX=1;exitY=0.5;exitDx=0;exitDy=0;entryX=0;entryY=0.5;entryDx=0;entryDy=0;" edge="1" parent="1" source="zD3SIofIrI8dMV4qVYlW-136" target="zD3SIofIrI8dMV4qVYlW-147">
          <mxGeometry relative="1" as="geometry" />
        </mxCell>
        <mxCell id="zD3SIofIrI8dMV4qVYlW-134" style="edgeStyle=orthogonalEdgeStyle;rounded=0;orthogonalLoop=1;jettySize=auto;html=1;exitX=1;exitY=0.5;exitDx=0;exitDy=0;entryX=0;entryY=0.5;entryDx=0;entryDy=0;" edge="1" parent="1" source="zD3SIofIrI8dMV4qVYlW-136" target="zD3SIofIrI8dMV4qVYlW-148">
          <mxGeometry relative="1" as="geometry" />
        </mxCell>
        <mxCell id="zD3SIofIrI8dMV4qVYlW-135" style="edgeStyle=orthogonalEdgeStyle;rounded=0;orthogonalLoop=1;jettySize=auto;html=1;exitX=1;exitY=0.5;exitDx=0;exitDy=0;entryX=0;entryY=0.5;entryDx=0;entryDy=0;" edge="1" parent="1" source="zD3SIofIrI8dMV4qVYlW-136" target="zD3SIofIrI8dMV4qVYlW-149">
          <mxGeometry relative="1" as="geometry" />
        </mxCell>
        <mxCell id="zD3SIofIrI8dMV4qVYlW-136" value="用户管理" style="rounded=0;whiteSpace=wrap;html=1;fillColor=#647687;fontColor=#ffffff;strokeColor=#314354;" vertex="1" parent="1">
          <mxGeometry x="360" y="907.5" width="120" height="60" as="geometry" />
        </mxCell>
        <mxCell id="zD3SIofIrI8dMV4qVYlW-137" value="平台介绍" style="html=1;whiteSpace=wrap;fillColor=#647687;fontColor=#ffffff;strokeColor=#314354;" vertex="1" parent="1">
          <mxGeometry x="660" y="317.5" width="110" height="50" as="geometry" />
        </mxCell>
        <mxCell id="zD3SIofIrI8dMV4qVYlW-138" value="研究院介绍" style="html=1;whiteSpace=wrap;fillColor=#647687;fontColor=#ffffff;strokeColor=#314354;" vertex="1" parent="1">
          <mxGeometry x="660" y="392.5" width="110" height="50" as="geometry" />
        </mxCell>
        <mxCell id="zD3SIofIrI8dMV4qVYlW-139" value="合作伙伴" style="html=1;whiteSpace=wrap;fillColor=#647687;fontColor=#ffffff;strokeColor=#314354;" vertex="1" parent="1">
          <mxGeometry x="660" y="467.5" width="110" height="50" as="geometry" />
        </mxCell>
        <mxCell id="zD3SIofIrI8dMV4qVYlW-140" style="edgeStyle=orthogonalEdgeStyle;rounded=0;orthogonalLoop=1;jettySize=auto;html=1;exitX=1;exitY=0.5;exitDx=0;exitDy=0;entryX=0;entryY=0.5;entryDx=0;entryDy=0;" edge="1" parent="1" source="zD3SIofIrI8dMV4qVYlW-131" target="zD3SIofIrI8dMV4qVYlW-143">
          <mxGeometry relative="1" as="geometry">
            <mxPoint x="510" y="687.5" as="sourcePoint" />
          </mxGeometry>
        </mxCell>
        <mxCell id="zD3SIofIrI8dMV4qVYlW-141" style="edgeStyle=orthogonalEdgeStyle;rounded=0;orthogonalLoop=1;jettySize=auto;html=1;exitX=1;exitY=0.5;exitDx=0;exitDy=0;entryX=0;entryY=0.5;entryDx=0;entryDy=0;" edge="1" parent="1" source="zD3SIofIrI8dMV4qVYlW-131" target="zD3SIofIrI8dMV4qVYlW-144">
          <mxGeometry relative="1" as="geometry">
            <mxPoint x="510" y="687.5" as="sourcePoint" />
          </mxGeometry>
        </mxCell>
        <mxCell id="zD3SIofIrI8dMV4qVYlW-142" style="edgeStyle=orthogonalEdgeStyle;rounded=0;orthogonalLoop=1;jettySize=auto;html=1;exitX=1;exitY=0.5;exitDx=0;exitDy=0;entryX=0;entryY=0.5;entryDx=0;entryDy=0;" edge="1" parent="1" source="zD3SIofIrI8dMV4qVYlW-131" target="zD3SIofIrI8dMV4qVYlW-145">
          <mxGeometry relative="1" as="geometry">
            <mxPoint x="510" y="687.5" as="sourcePoint" />
          </mxGeometry>
        </mxCell>
        <mxCell id="zD3SIofIrI8dMV4qVYlW-143" value="报告查询" style="html=1;whiteSpace=wrap;fillColor=#647687;fontColor=#ffffff;strokeColor=#314354;" vertex="1" parent="1">
          <mxGeometry x="660" y="557.5" width="110" height="50" as="geometry" />
        </mxCell>
        <mxCell id="zD3SIofIrI8dMV4qVYlW-144" value="数据查询" style="html=1;whiteSpace=wrap;fillColor=#647687;fontColor=#ffffff;strokeColor=#314354;" vertex="1" parent="1">
          <mxGeometry x="660" y="627.5" width="110" height="50" as="geometry" />
        </mxCell>
        <mxCell id="zD3SIofIrI8dMV4qVYlW-145" value="字段说明" style="html=1;whiteSpace=wrap;fillColor=#647687;fontColor=#ffffff;strokeColor=#314354;" vertex="1" parent="1">
          <mxGeometry x="660" y="697.5" width="110" height="50" as="geometry" />
        </mxCell>
        <mxCell id="zD3SIofIrI8dMV4qVYlW-146" value="数据库说明" style="html=1;whiteSpace=wrap;fillColor=#647687;fontColor=#ffffff;strokeColor=#314354;" vertex="1" parent="1">
          <mxGeometry x="660" y="767.5" width="110" height="50" as="geometry" />
        </mxCell>
        <mxCell id="zD3SIofIrI8dMV4qVYlW-147" value="用户管理" style="html=1;whiteSpace=wrap;fillColor=#647687;fontColor=#ffffff;strokeColor=#314354;" vertex="1" parent="1">
          <mxGeometry x="660" y="842.5" width="110" height="50" as="geometry" />
        </mxCell>
        <mxCell id="zD3SIofIrI8dMV4qVYlW-148" value="个人中心" style="html=1;whiteSpace=wrap;fillColor=#647687;fontColor=#ffffff;strokeColor=#314354;" vertex="1" parent="1">
          <mxGeometry x="660" y="912.5" width="110" height="50" as="geometry" />
        </mxCell>
        <mxCell id="zD3SIofIrI8dMV4qVYlW-149" value="权限管理" style="html=1;whiteSpace=wrap;fillColor=#647687;fontColor=#ffffff;strokeColor=#314354;" vertex="1" parent="1">
          <mxGeometry x="660" y="982.5" width="110" height="50" as="geometry" />
        </mxCell>
        <mxCell id="zD3SIofIrI8dMV4qVYlW-150" value="指标目录" style="swimlane;fontStyle=0;childLayout=stackLayout;horizontal=1;startSize=26;horizontalStack=0;resizeParent=1;resizeParentMax=0;resizeLast=0;collapsible=1;marginBottom=0;align=center;fontSize=18;fillColor=#647687;fontColor=#ffffff;strokeColor=#314354;" vertex="1" collapsed="1" parent="1">
          <mxGeometry x="1990" y="1037.5" width="110" height="40" as="geometry">
            <mxRectangle x="1990" y="1037.5" width="160" height="56" as="alternateBounds" />
          </mxGeometry>
        </mxCell>
        <mxCell id="zD3SIofIrI8dMV4qVYlW-151" value="指标名称" style="text;fillColor=none;spacingLeft=4;spacingRight=4;overflow=hidden;rotatable=0;points=[[0,0.5],[1,0.5]];portConstraint=eastwest;fontSize=18;whiteSpace=wrap;html=1;" vertex="1" parent="zD3SIofIrI8dMV4qVYlW-150">
          <mxGeometry y="26" width="160" height="30" as="geometry" />
        </mxCell>
        <mxCell id="zD3SIofIrI8dMV4qVYlW-152" style="edgeStyle=orthogonalEdgeStyle;rounded=0;orthogonalLoop=1;jettySize=auto;html=1;exitX=1;exitY=0.5;exitDx=0;exitDy=0;entryX=0.005;entryY=0.096;entryDx=0;entryDy=0;entryPerimeter=0;" edge="1" parent="1" source="zD3SIofIrI8dMV4qVYlW-19" target="zD3SIofIrI8dMV4qVYlW-51">
          <mxGeometry relative="1" as="geometry">
            <Array as="points">
              <mxPoint x="1720" y="662.5" />
              <mxPoint x="1720" y="731.5" />
            </Array>
          </mxGeometry>
        </mxCell>
        <mxCell id="zD3SIofIrI8dMV4qVYlW-153" style="edgeStyle=orthogonalEdgeStyle;rounded=0;orthogonalLoop=1;jettySize=auto;html=1;exitX=1;exitY=0.5;exitDx=0;exitDy=0;entryX=0;entryY=0.07;entryDx=0;entryDy=0;entryPerimeter=0;" edge="1" parent="1" source="zD3SIofIrI8dMV4qVYlW-52" target="zD3SIofIrI8dMV4qVYlW-74">
          <mxGeometry relative="1" as="geometry">
            <Array as="points">
              <mxPoint x="1960" y="757.5" />
              <mxPoint x="1960" y="331.5" />
              <mxPoint x="2161" y="331.5" />
            </Array>
          </mxGeometry>
        </mxCell>
        <mxCell id="zD3SIofIrI8dMV4qVYlW-154" style="edgeStyle=orthogonalEdgeStyle;rounded=0;orthogonalLoop=1;jettySize=auto;html=1;exitX=1;exitY=0.5;exitDx=0;exitDy=0;entryX=-0.008;entryY=0.056;entryDx=0;entryDy=0;entryPerimeter=0;" edge="1" parent="1" source="zD3SIofIrI8dMV4qVYlW-53" target="zD3SIofIrI8dMV4qVYlW-56">
          <mxGeometry relative="1" as="geometry">
            <Array as="points">
              <mxPoint x="1990" y="787.5" />
              <mxPoint x="1990" y="560.5" />
            </Array>
          </mxGeometry>
        </mxCell>
        <mxCell id="zD3SIofIrI8dMV4qVYlW-155" style="edgeStyle=orthogonalEdgeStyle;rounded=0;orthogonalLoop=1;jettySize=auto;html=1;exitX=1;exitY=0.5;exitDx=0;exitDy=0;entryX=-0.006;entryY=0.075;entryDx=0;entryDy=0;entryPerimeter=0;" edge="1" parent="1" source="zD3SIofIrI8dMV4qVYlW-54" target="zD3SIofIrI8dMV4qVYlW-64">
          <mxGeometry relative="1" as="geometry" />
        </mxCell>
        <mxCell id="zD3SIofIrI8dMV4qVYlW-156" style="edgeStyle=orthogonalEdgeStyle;rounded=0;orthogonalLoop=1;jettySize=auto;html=1;exitX=1;exitY=0.5;exitDx=0;exitDy=0;entryX=-0.004;entryY=0.104;entryDx=0;entryDy=0;entryPerimeter=0;" edge="1" parent="1" source="zD3SIofIrI8dMV4qVYlW-55" target="zD3SIofIrI8dMV4qVYlW-69">
          <mxGeometry relative="1" as="geometry" />
        </mxCell>
        <mxCell id="zD3SIofIrI8dMV4qVYlW-157" style="edgeStyle=orthogonalEdgeStyle;rounded=0;orthogonalLoop=1;jettySize=auto;html=1;exitX=1;exitY=0.5;exitDx=0;exitDy=0;entryX=-0.014;entryY=0.277;entryDx=0;entryDy=0;entryPerimeter=0;" edge="1" parent="1" source="zD3SIofIrI8dMV4qVYlW-16" target="zD3SIofIrI8dMV4qVYlW-49">
          <mxGeometry relative="1" as="geometry" />
        </mxCell>
        <mxCell id="zD3SIofIrI8dMV4qVYlW-158" value="数据可视化" style="swimlane;fontStyle=0;childLayout=stackLayout;horizontal=1;startSize=26;horizontalStack=0;resizeParent=1;resizeParentMax=0;resizeLast=0;collapsible=1;marginBottom=0;align=center;fontSize=18;fillColor=#647687;fontColor=#ffffff;strokeColor=#314354;" vertex="1" parent="1">
          <mxGeometry x="1760" y="1007.5" width="160" height="146" as="geometry">
            <mxRectangle x="1241" y="1840" width="110" height="40" as="alternateBounds" />
          </mxGeometry>
        </mxCell>
        <mxCell id="zD3SIofIrI8dMV4qVYlW-159" value="指标目录" style="text;fillColor=#e3c800;spacingLeft=4;spacingRight=4;overflow=hidden;rotatable=0;points=[[0,0.5],[1,0.5]];portConstraint=eastwest;fontSize=18;whiteSpace=wrap;html=1;fontColor=#000000;strokeColor=#B09500;" vertex="1" parent="zD3SIofIrI8dMV4qVYlW-158">
          <mxGeometry y="26" width="160" height="30" as="geometry" />
        </mxCell>
        <mxCell id="zD3SIofIrI8dMV4qVYlW-160" value="指标搜索框" style="text;fillColor=#60a917;spacingLeft=4;spacingRight=4;overflow=hidden;rotatable=0;points=[[0,0.5],[1,0.5]];portConstraint=eastwest;fontSize=18;whiteSpace=wrap;html=1;fontColor=#ffffff;strokeColor=#2D7600;" vertex="1" parent="zD3SIofIrI8dMV4qVYlW-158">
          <mxGeometry y="56" width="160" height="30" as="geometry" />
        </mxCell>
        <mxCell id="zD3SIofIrI8dMV4qVYlW-161" value="年份播放/暂停" style="text;fillColor=#60a917;spacingLeft=4;spacingRight=4;overflow=hidden;rotatable=0;points=[[0,0.5],[1,0.5]];portConstraint=eastwest;fontSize=18;whiteSpace=wrap;html=1;fontColor=#ffffff;strokeColor=#2D7600;" vertex="1" parent="zD3SIofIrI8dMV4qVYlW-158">
          <mxGeometry y="86" width="160" height="30" as="geometry" />
        </mxCell>
        <mxCell id="zD3SIofIrI8dMV4qVYlW-162" value="年份标尺" style="text;fillColor=#60a917;spacingLeft=4;spacingRight=4;overflow=hidden;rotatable=0;points=[[0,0.5],[1,0.5]];portConstraint=eastwest;fontSize=18;whiteSpace=wrap;html=1;fontColor=#ffffff;strokeColor=#2D7600;" vertex="1" parent="zD3SIofIrI8dMV4qVYlW-158">
          <mxGeometry y="116" width="160" height="30" as="geometry" />
        </mxCell>
        <mxCell id="zD3SIofIrI8dMV4qVYlW-163" style="edgeStyle=orthogonalEdgeStyle;rounded=0;orthogonalLoop=1;jettySize=auto;html=1;exitX=1;exitY=0.5;exitDx=0;exitDy=0;entryX=-0.004;entryY=0.099;entryDx=0;entryDy=0;entryPerimeter=0;" edge="1" parent="1" source="zD3SIofIrI8dMV4qVYlW-22" target="zD3SIofIrI8dMV4qVYlW-158">
          <mxGeometry relative="1" as="geometry">
            <Array as="points">
              <mxPoint x="1690" y="692.5" />
              <mxPoint x="1690" y="1022.5" />
            </Array>
          </mxGeometry>
        </mxCell>
        <mxCell id="zD3SIofIrI8dMV4qVYlW-164" style="edgeStyle=orthogonalEdgeStyle;rounded=0;orthogonalLoop=1;jettySize=auto;html=1;exitX=1;exitY=0.5;exitDx=0;exitDy=0;entryX=0;entryY=0.25;entryDx=0;entryDy=0;" edge="1" parent="1" source="zD3SIofIrI8dMV4qVYlW-159" target="zD3SIofIrI8dMV4qVYlW-150">
          <mxGeometry relative="1" as="geometry" />
        </mxCell>
        <mxCell id="zD3SIofIrI8dMV4qVYlW-165" style="edgeStyle=orthogonalEdgeStyle;rounded=0;orthogonalLoop=1;jettySize=auto;html=1;exitX=1;exitY=0.5;exitDx=0;exitDy=0;entryX=0.004;entryY=0.047;entryDx=0;entryDy=0;entryPerimeter=0;" edge="1" parent="1" source="zD3SIofIrI8dMV4qVYlW-82" target="zD3SIofIrI8dMV4qVYlW-94">
          <mxGeometry relative="1" as="geometry" />
        </mxCell>
      </root>
    </mxGraphModel>
  </diagram>
</mxfile>
